<?xml version="1.0" standalone="no"?>
<!DOCTYPE svg PUBLIC "-//W3C//DTD SVG 20010904//EN"
 "http://www.w3.org/TR/2001/REC-SVG-20010904/DTD/svg10.dtd">
<svg version="1.0" xmlns="http://www.w3.org/2000/svg"
 width="308.000000pt" height="308.000000pt" viewBox="0 0 308.000000 308.000000"
 preserveAspectRatio="xMidYMid meet">
<metadata>
Created by potrace 1.14, written by Peter Selinger 2001-2017
</metadata>
<g transform="translate(0.000000,308.000000) scale(0.100000,-0.100000)"
fill="#000000" stroke="none">
<path d="M1375 3073 c-93 -11 -347 -72 -380 -91 -5 -4 -14 -7 -20 -8 -24 -4
-217 -105 -281 -147 -330 -218 -580 -579 -658 -953 -8 -39 -18 -83 -22 -99
-13 -59 -12 -368 2 -455 28 -175 72 -316 144 -461 216 -436 603 -731 1088
-831 155 -31 421 -31 579 0 477 95 872 394 1088 822 52 103 95 219 120 320 50
210 54 462 9 685 -108 538 -520 993 -1045 1154 -53 16 -113 32 -135 35 -21 4
-46 8 -54 11 -46 13 -90 17 -240 19 -91 1 -178 1 -195 -1z"/>
</g>
</svg>
