<svg width="74" height="104" fill="none" xmlns="http://www.w3.org/2000/svg"><g clip-path="url(#clip0)"><path d="M18.68 64a.918.918 0 00-.25 0c-.22 0-.3.14-.19.37.21.41.9.8 1.2.68.3-.12 0-.7-.69-1l-.07-.05z" fill="url(#paint0_radial)"/><path d="M17.94 59.92c.39-.14.17-.88-.47-1.18a.829.829 0 00-.28-.06c-.27 0-.37.21-.31.48.12.46.7.84 1.06.76z" fill="url(#paint1_radial)"/><path d="M23.12 55h-.24c-.89 0-1 1.13-.79 1.78a1.999 1.999 0 002.65 1.06c.82-.57-.01-2.4-1.62-2.84z" fill="url(#paint2_radial)"/><path d="M59.71 7.84A58.75 58.75 0 0157 5.87a.25.25 0 00-.16-.06c-.26 0-.53.41-.83.83-.3.42-.85 1.11-1.39.66 1 .8 6.73 3.66 7.65 5.12.76 1.21-3.32.93-2.74 2.48a23.07 23.07 0 01-3.14 22.38 34.86 34.86 0 01-25.27 13.1c-5.31.32-6.61 8.07-4.95 11.54 1.55 3.26 5.87 3.42 7.46 6.65.64 1.32-1.26 2.68.07 4 1.34.373 2.713.614 4.1.72h.12c.86 0 2-.14 2.86-.21a34.056 34.056 0 004.69-.82 35.456 35.456 0 004.41-1.36A37.401 37.401 0 0054 69a34.482 34.482 0 004-2.43 34.261 34.261 0 003.75-3 34.777 34.777 0 003.51-3.74c.83-1.06 1.87-2.53 2.64-3.64a35.69 35.69 0 002.61-4.92 34.905 34.905 0 001.91-5.52 36.738 36.738 0 001-12.57 37.653 37.653 0 00-1.25-6.67 36.991 36.991 0 00-2.55-6.55A40.155 40.155 0 0065.09 13a36.352 36.352 0 00-4.94-4.92l-1-.79c.29.28.46.45.56.55z" fill="url(#paint3_radial)"/><path d="M59.11 7.29a30.337 30.337 0 00-2.73-1.93c.82.56 1.82 1.26 2.73 1.93z" fill="url(#paint4_radial)"/><path d="M30.48 71.54c.29-.19-.42-.63-1.46-.79a3.677 3.677 0 00-.39 0h-.22c-.32 0-.38.19-.15.37a3.12 3.12 0 002.22.42z" fill="url(#paint5_radial)"/><path d="M22.16 60.19a1.859 1.859 0 00-.32 0 .639.639 0 00-.64.9 1.6 1.6 0 001.9 1c.66-.36.21-1.56-.94-1.9z" fill="url(#paint6_radial)"/><path d="M26 71.38a.2.2 0 00-.11 0s0 .06.18.14c.68.313 1.413.496 2.16.54a4.33 4.33 0 00-1.57-.59 3.914 3.914 0 00-.66-.09z" fill="url(#paint7_radial)"/><path d="M25 65.31l-.37-.06a3.605 3.605 0 00-.54 0c-1.63 0-1.65 1.37-.86 2.43C24.54 69.35 29 70 30 69.25c1-.75-1.43-3.12-5-3.94z" fill="url(#paint8_radial)"/><path d="M15.21 61.5c.48.7 1.57 1 1.67.57.1-.43-.49-.86-1.12-1a1 1 0 00-.32-.06c-.3 0-.42.18-.27.46a.43.43 0 00.04.03z" fill="url(#paint9_radial)"/><path d="M15.67 39.08A3.58 3.58 0 0013.58 38c-.54 0-1.08.31-1.45 1.24-.9 3.09 1.33 5.53 2.8 4.62.78-.51 2.2-3.18.74-4.78z" fill="url(#paint10_radial)"/><path d="M34.32 21.86a.75.75 0 00-.68-.55c-.1 0-.2.025-.29.07a.75.75 0 00.25 1.33.621.621 0 00.72-.85z" fill="url(#paint11_radial)"/><path d="M15.48 52.13c.09.6 1 1 1.24.63s-.07-.66-.5-.87a1.002 1.002 0 00-.39-.1c-.21 0-.36.1-.35.34z" fill="url(#paint12_radial)"/><path d="M29.84 17a1.16 1.16 0 001.47-1.38 1.09 1.09 0 00-1.06-.75 1.52 1.52 0 00-.63.15 1 1 0 00.22 1.98z" fill="url(#paint13_radial)"/><path d="M25.42 15.94a2.5 2.5 0 00-2.13-1.79 2.14 2.14 0 00-1.09.32l-.24.16c-2.32 1.86-1.89 4.47-.27 4.75 1.31.25 4.31-1.6 3.73-3.44z" fill="url(#paint14_radial)"/><path d="M21.65 31.65a1.151 1.151 0 00-.93-.56 1 1 0 00-.74.37 1.29 1.29 0 001.21 2 1.14 1.14 0 00.46-1.81z" fill="url(#paint15_radial)"/><path d="M21.21 24.46s-1.11-2.21-2.77-2.21a2.7 2.7 0 00-1.9 1c-2.56 3.18-1.06 6.9 1.19 6.68 1.58-.2 4.67-2.93 3.48-5.47z" fill="url(#paint16_radial)"/><path d="M8.93 18.31c.78-.06 3.92-3.18 3.79-4.29 0 0-.1-.61-.63-.61-.36 0-.9.26-1.74 1.13-1.69 1.9-2.29 3.83-1.42 3.77z" fill="url(#paint17_radial)"/><path d="M15 7.38c-3.47 2.67-4.81 5.16-3.78 5.25 1.39.13 10.54-5.74 10.2-7.24-.06-.23-.39-.43-1-.43-1.03.04-2.85.56-5.42 2.42z" fill="url(#paint18_radial)"/><path d="M22.63 3.13a3.17 3.17 0 00-1.11.35c-.7.35-.9.6-.75.66.38.15 2.06-.65 2-.95 0-.04-.06-.06-.14-.06z" fill="url(#paint19_radial)"/><path d="M11.35 35.71c.94-.44 2.47-2.9 1.38-4.61 0 0-.89-1.33-1.88-1.33-.44 0-.91.26-1.33 1-1.26 2.89.37 5.61 1.83 4.94z" fill="url(#paint20_radial)"/><path d="M9.9 50.47c.19-.23 0-.79-.41-1.07a.65.65 0 00-.33-.13c-.15 0-.27.11-.26.38.1.66.77 1.13 1 .82z" fill="url(#paint21_radial)"/><path d="M9.06 40.53c.32-.19.31-.87 0-1.23a.48.48 0 00-.36-.19c-.15 0-.3.11-.37.37-.16.66.36 1.26.73 1.05z" fill="url(#paint22_radial)"/><path d="M.86 31.65a.1.1 0 00-.08.05 1.83 1.83 0 00-.16.5v.16c-.27 1.66-.13 3.17.1 3a6.8 6.8 0 00.42-3.08s-.14-.63-.28-.63z" fill="url(#paint23_radial)"/><path d="M16.43 11.45a.4.4 0 00-.42-.29 1.67 1.67 0 00-1 .44c-.84.75-.84 1.52-.23 1.52s1.8-1.06 1.65-1.67z" fill="url(#paint24_radial)"/><path d="M53.63 19.37a.89.89 0 00-.71-.89c-.56 0-.62.73-.22 1.16.4.43.92.27.93-.27z" fill="url(#paint25_radial)"/><path d="M.32 39.72a18.09 18.09 0 000-4.13 3.849 3.849 0 00-.2-.87 4 4 0 00-.09.92 14.14 14.14 0 00.26 4.07l.03.01z" fill="url(#paint26_radial)"/><path d="M72.17 26.48a37.82 37.82 0 00-2.55-6.55A40.38 40.38 0 0065.09 13a37.288 37.288 0 00-4.94-4.92c-1.14-.86-2.68-2-3.87-2.78l-.53-.3c-1.52-.88-4.09-2.2-5.75-2.2a2 2 0 00-.77.13c.6 2.47 10.6 8 10.7 8 .1 0 .26.57 0 .72a1.29 1.29 0 01-1.17-.2c-5.69-4.85-10.48-2.38-10.12.64.36 3.02 5.34 6 9.85 7.34.37.79.37.79.08 1.29a3.428 3.428 0 01-1.57-.08 3.15 3.15 0 00-1.8 0 3.31 3.31 0 00-1.9 2.13c-.55 2.16.74 4.45 3.29 5.84 14.15 7.73 12.93 19.21 12.91 19.32a29.12 29.12 0 01-21 22.84c-3.24 1-6.69 1-9.89 2.14a5 5 0 00-.73.37c.86-.06 2-.12 2.86-.21a34.261 34.261 0 004.69-.82 35.058 35.058 0 004.41-1.36A36.382 36.382 0 0058 66.57a36.209 36.209 0 007.26-6.77c.82-1.07 1.88-2.52 2.64-3.64a35.086 35.086 0 002.61-4.92 36.003 36.003 0 001.91-5.52c.501-1.995.836-4.03 1-6.08a38.45 38.45 0 000-6.49 37.005 37.005 0 00-1.25-6.67z" fill="url(#paint27_radial)"/><path d="M43.23 1.67c-2.17 0-3.16.85-2.16 1.88 1.32 1.37 6.86 1.94 7 .71A.797.797 0 0048 4c-.23-.53-1.58-2.09-4.65-2.29l-.12-.04z" fill="url(#paint28_radial)"/><path d="M51.68 6.59a.27.27 0 000-.12 1.38 1.38 0 00-1-.66h-.13c-.35 0-.33.23-.2.41.35.46 1.27.78 1.33.37z" fill="url(#paint29_radial)"/><path d="M46.78 9.43a1 1 0 00-1-.64c-.6 0-.56.55-.22.84.34.29 1.26.28 1.22-.2z" fill="url(#paint30_radial)"/><path d="M37.12 4.12a.82.82 0 00-.76-.33h-.27c-.52.12-.57.42-.28.61.46.29 1.38.11 1.31-.28z" fill="url(#paint31_radial)"/><path d="M39.12 26.42c2.82 2 11 1.4 11.36-3.11.13-1.59-.63-7.12-6.28-7.12-.37 0-.76 0-1.18.07-6.31 1.46-7.76 7.48-3.9 10.16z" fill="url(#paint32_radial)"/><path d="M39.49 15.63a.69.69 0 00-.2 0c-.61.21-.51.95 0 1.22a.61.61 0 00.93-.63.79.79 0 00-.73-.59z" fill="url(#paint33_radial)"/><path d="M1.34 26.59c-.06.21-.14.48-.19.69C.91 28.38.58 29.85.4 31a1.25 1.25 0 000 .25c.06-.08.73-3.1.87-4-.04.04.07-.64.07-.66z" fill="url(#paint34_radial)"/><path d="M49.48 7.29a.894.894 0 000-.15 1.91 1.91 0 00-1.65-1c-.85 0-.82.58-.42 1 .66.7 2.05.86 2.07.15z" fill="url(#paint35_radial)"/><path d="M35.66.11a24.52 24.52 0 00-4.43.4c-4.85.91-7.19 3-6.28 3.61.91.61 15.73-1.94 15.86-2.9a.31.31 0 000-.13c-.26-.48-2.34-.98-5.15-.98z" fill="url(#paint36_radial)"/><path d="M39.8.07a4.7 4.7 0 002.32.28h-.06A5.84 5.84 0 0040.39 0h-.26c-.3 0-.35 0-.33.07z" fill="url(#paint37_radial)"/><path d="M11.88 53.26c-.17 0-.3.1-.25.37.15.6.9 1 1.12.68.22-.32-.12-.73-.54-1a.779.779 0 00-.33-.05z" fill="url(#paint38_radial)"/><path d="M14 50c1.05-.91.56-3.23-.91-4.37a2.18 2.18 0 00-1.28-.49c-.68 0-1.29.46-1.43 1.66-.05 2.59 2.33 4.32 3.62 3.2z" fill="url(#paint39_radial)"/><path d="M10.76 61.19v.05a.46.46 0 00.07.14c.22.29.53.49.55.4.02-.09-.26-.4-.47-.54a.362.362 0 00-.15-.05z" fill="url(#paint40_radial)"/><path d="M1.58 46.55a1.07 1.07 0 00.06.51 4.71 4.71 0 00.64 1.61 5.25 5.25 0 00-.52-1.83c-.13-.28-.17-.29-.18-.29z" fill="url(#paint41_radial)"/><path d="M18.44 46.48a.35.35 0 00-.38.28c-.07.6.82 1.1 1.2.82.38-.28.11-.65-.32-.93a.94.94 0 00-.5-.17z" fill="url(#paint42_radial)"/><path d="M4.89 18.4h-.06a6.6 6.6 0 00-.92 1.54c-1.52 3-2.17 5.23-2 5.39.39-.12 2.62-4.88 2.88-6.13a2.23 2.23 0 00.1-.8z" fill="url(#paint43_radial)"/><path d="M1.86 36.9c0-.07-.07-.11-.11-.11-.04 0-.05 0-.08.09v.14c0 .39.09.74.2.65.11-.09.13-.54-.01-.77z" fill="url(#paint44_radial)"/><path d="M51.44 2.76c-.17-.09-.17-.09-2.71-1.06l-2.06-.64h-.2a31.37 31.37 0 005.15 1.85s-.05-.09-.18-.15z" fill="url(#paint45_radial)"/><path d="M3 26.55s-.1 0-.16.12a2.003 2.003 0 00-.14.33c-.23.64-.18 1.2 0 1.08a1.78 1.78 0 00.4-1.32c.01-.16-.03-.21-.1-.21z" fill="url(#paint46_radial)"/><path d="M19.76 39.46c1-.27 2.75-2.44 1.69-3.9a2.92 2.92 0 00-1.89-1.12 1.701 1.701 0 00-1.4.89c-1.27 2.28.18 4.5 1.6 4.13z" fill="url(#paint47_radial)"/><path d="M45.83 1.2a3.22 3.22 0 00-1-.31 1.11 1.11 0 00-.23 0c-.12 0-.13 0-.12.05.43.249.924.367 1.42.34l-.07-.08z" fill="url(#paint48_radial)"/><path d="M44.75 10.79c-.35-2.26-3.62-5.53-8.28-5.53a9.94 9.94 0 00-2.37.28c-5.22 1.63-6.9 6.26-3 8.39 4.47 2.5 14.39 1.53 13.65-3.14z" fill="url(#paint49_radial)"/><path d="M25.87 32.52a.84.84 0 00-.6.26c-.66.84.27 2.17 1.21 2.1.71-.05.94-.92.45-1.68a1.34 1.34 0 00-1.06-.68z" fill="url(#paint50_radial)"/><path d="M35.65 26.84a.918.918 0 00-.38.09c-.86.57-.31 2.1.61 2.34.69.18 1.15-.55.88-1.42a1.31 1.31 0 00-1.11-1.01z" fill="url(#paint51_radial)"/><path d="M33.21 24.67C33.19 24.62 32 21 29 21a5.1 5.1 0 00-2.75.93c-4.45 3.49-3.25 8.62 0 9 2.38.31 8.03-2.61 6.96-6.26z" fill="url(#paint52_radial)"/><path d="M3.21 36.25c.56-.37.74-2.11.3-3-.13-.3-.3-.44-.47-.44-.17 0-.4.21-.55.61l-.09.3c-.33 1.52.22 2.92.81 2.53z" fill="url(#paint53_radial)"/><path d="M24.09 6.44a4.62 4.62 0 00-2.1.62c-3.18 2-3.33 4.47-1.61 4.83 1.51.31 6.35-2 5.83-3.92a2.21 2.21 0 00-2.12-1.53z" fill="url(#paint54_radial)"/><path d="M11.73 23.14c-.44 0-1 .28-1.66 1.16-1.58 2.43-1.18 4.61-.06 4.44 1-.14 3.55-3.24 2.94-4.69a1.54 1.54 0 00-1.22-.91z" fill="url(#paint55_radial)"/><path d="M26.66 12.14c.55.13 1.15-.36 1-.82a.57.57 0 00-.57-.34 1.05 1.05 0 00-.45.11c-.59.35-.49.91.02 1.05z" fill="url(#paint56_radial)"/><path d="M8.74 20.94c0-.08-.37-1.31-1.17-1.31-.45 0-1 .37-1.78 1.53-2.08 3.6-1.53 6.59-.33 6.24 1.2-.35 3.82-4.4 3.28-6.46z" fill="url(#paint57_radial)"/><path d="M19.53 14.17a2.36 2.36 0 00-2.35-1.23 6.82 6.82 0 00-4.57 2.17c-2.95 3.15-3.67 7.3-1.24 7.16 2.63-.14 9.09-5.56 8.16-8.1z" fill="url(#paint58_radial)"/><path d="M15.54 35.22a.76.76 0 00.22-1.2.621.621 0 00-.47-.26.551.551 0 00-.47.3c-.31.63.18 1.3.72 1.16z" fill="url(#paint59_radial)"/><path d="M17.83 19.89a.84.84 0 00-.53.23c-.51.54-.27 1.21.27 1.18a.85.85 0 00.71-1.12.48.48 0 00-.45-.29z" fill="url(#paint60_radial)"/><path d="M8.39 14.78c0-.11 0-.17-.08-.17a.47.47 0 00-.26.13 3.3 3.3 0 00-.5.53c-.61.8-.82 1.44-.59 1.44.23 0 1.38-1.37 1.43-1.93z" fill="url(#paint61_radial)"/><path d="M6.34 34.63c.63-.31 2-2.83 1-4.26-.17-.25-.58-.8-1-.8-.42 0-.65.24-1 1-.83 2.34.07 4.51 1 4.06z" fill="url(#paint62_radial)"/><path d="M4.42 52a2.14 2.14 0 00-.48-1.21c-.08-.11-.15-.16-.19-.16-.04 0 0 0 0 .08a.87.87 0 000 .28c.25.62.59 1.16.67 1.01z" fill="url(#paint63_radial)"/><path d="M6.47 44c.85-.56 1.78-4.27.31-6.3-.06-.08-1-1.41-1.9-1.41-.47 0-.91.39-1.15 1.55-.51 3.79 1.51 7.01 2.74 6.16z" fill="url(#paint64_radial)"/><path d="M6.81 57.85c-.42-.62-1-1.46-1.38-2.09l.16.26c.35.53 1.09 1.65 1.22 1.83z" fill="url(#paint65_radial)"/><path d="M6.32 51.08c.4-.45.22-3.45-.75-4.55a1.8 1.8 0 00-1-.62c-.25 0-.45.19-.48.77-.01.183-.01.367 0 .55.35 2.48 1.74 4.4 2.23 3.85z" fill="url(#paint66_radial)"/><path d="M8 55.14c.16-.35-.34-1.32-.92-1.8a.74.74 0 00-.42-.2c-.15 0-.22.12-.19.35.013.091.033.182.06.27.37 1.03 1.29 1.79 1.47 1.38z" fill="url(#paint67_radial)"/><path d="M3.14 98.71l-1.56 4.22-1-.47 7.55-20.07 7.54 20.07-1 .47-1.64-4.22H3.14zm.4-1.1h9.07l-4.48-12.2-4.59 12.2zm16.36 5.07V82.31L34 100.38V83.15h1.09v20.37l-14.1-18.07v17.23H19.9zm20 0V83.15h14.43v1.09H40.99v6.63h10.93v1.1H40.99v10.71H39.9zm18.65 0V83.15h14.43v1.09H59.65v6.63h10.92v1.1H59.65v10.71h-1.1z" fill="#77787B"/></g><defs><radialGradient id="paint0_radial" cx="0" cy="0" r="1" gradientUnits="userSpaceOnUse" gradientTransform="matrix(44.79 0 0 44.7901 36.126 51.575)"><stop stop-color="#FCDADC"/><stop offset=".08" stop-color="#FCDADC"/><stop offset=".21" stop-color="#EAA2B8"/><stop offset=".49" stop-color="#BE175F"/><stop offset=".54" stop-color="#B70050"/><stop offset="1" stop-color="#350000"/></radialGradient><radialGradient id="paint1_radial" cx="0" cy="0" r="1" gradientUnits="userSpaceOnUse" gradientTransform="matrix(44.79 0 0 44.7899 36.126 51.575)"><stop stop-color="#FCDADC"/><stop offset=".08" stop-color="#FCDADC"/><stop offset=".21" stop-color="#EAA2B8"/><stop offset=".49" stop-color="#BE175F"/><stop offset=".54" stop-color="#B70050"/><stop offset="1" stop-color="#350000"/></radialGradient><radialGradient id="paint2_radial" cx="0" cy="0" r="1" gradientUnits="userSpaceOnUse" gradientTransform="translate(36.126 51.575) scale(44.79)"><stop stop-color="#FCDADC"/><stop offset=".08" stop-color="#FCDADC"/><stop offset=".21" stop-color="#EAA2B8"/><stop offset=".49" stop-color="#BE175F"/><stop offset=".54" stop-color="#B70050"/><stop offset="1" stop-color="#350000"/></radialGradient><radialGradient id="paint3_radial" cx="0" cy="0" r="1" gradientUnits="userSpaceOnUse" gradientTransform="translate(36.126 51.575) scale(44.79)"><stop stop-color="#FCDADC"/><stop offset=".08" stop-color="#FCDADC"/><stop offset=".21" stop-color="#EAA2B8"/><stop offset=".49" stop-color="#BE175F"/><stop offset=".54" stop-color="#B70050"/><stop offset="1" stop-color="#350000"/></radialGradient><radialGradient id="paint4_radial" cx="0" cy="0" r="1" gradientUnits="userSpaceOnUse" gradientTransform="translate(36.126 51.575) scale(44.79)"><stop stop-color="#FCDADC"/><stop offset=".08" stop-color="#FCDADC"/><stop offset=".21" stop-color="#EAA2B8"/><stop offset=".49" stop-color="#BE175F"/><stop offset=".54" stop-color="#B70050"/><stop offset="1" stop-color="#350000"/></radialGradient><radialGradient id="paint5_radial" cx="0" cy="0" r="1" gradientUnits="userSpaceOnUse" gradientTransform="translate(36.126 51.574) scale(44.79)"><stop stop-color="#FCDADC"/><stop offset=".08" stop-color="#FCDADC"/><stop offset=".21" stop-color="#EAA2B8"/><stop offset=".49" stop-color="#BE175F"/><stop offset=".54" stop-color="#B70050"/><stop offset="1" stop-color="#350000"/></radialGradient><radialGradient id="paint6_radial" cx="0" cy="0" r="1" gradientUnits="userSpaceOnUse" gradientTransform="translate(36.126 51.575) scale(44.79)"><stop stop-color="#FCDADC"/><stop offset=".08" stop-color="#FCDADC"/><stop offset=".21" stop-color="#EAA2B8"/><stop offset=".49" stop-color="#BE175F"/><stop offset=".54" stop-color="#B70050"/><stop offset="1" stop-color="#350000"/></radialGradient><radialGradient id="paint7_radial" cx="0" cy="0" r="1" gradientUnits="userSpaceOnUse" gradientTransform="translate(36.126 51.575) scale(44.79)"><stop stop-color="#FCDADC"/><stop offset=".08" stop-color="#FCDADC"/><stop offset=".21" stop-color="#EAA2B8"/><stop offset=".49" stop-color="#BE175F"/><stop offset=".54" stop-color="#B70050"/><stop offset="1" stop-color="#350000"/></radialGradient><radialGradient id="paint8_radial" cx="0" cy="0" r="1" gradientUnits="userSpaceOnUse" gradientTransform="translate(36.126 51.575) scale(44.79)"><stop stop-color="#FCDADC"/><stop offset=".08" stop-color="#FCDADC"/><stop offset=".21" stop-color="#EAA2B8"/><stop offset=".49" stop-color="#BE175F"/><stop offset=".54" stop-color="#B70050"/><stop offset="1" stop-color="#350000"/></radialGradient><radialGradient id="paint9_radial" cx="0" cy="0" r="1" gradientUnits="userSpaceOnUse" gradientTransform="translate(23.493 16.532) scale(57.73)"><stop stop-color="#E6E7E8"/><stop offset=".58" stop-color="#939598"/><stop offset="1" stop-color="#58595B"/></radialGradient><radialGradient id="paint10_radial" cx="0" cy="0" r="1" gradientUnits="userSpaceOnUse" gradientTransform="translate(23.493 16.532) scale(57.73)"><stop stop-color="#E6E7E8"/><stop offset=".58" stop-color="#939598"/><stop offset="1" stop-color="#58595B"/></radialGradient><radialGradient id="paint11_radial" cx="0" cy="0" r="1" gradientUnits="userSpaceOnUse" gradientTransform="translate(23.493 16.532) scale(57.73)"><stop stop-color="#E6E7E8"/><stop offset=".58" stop-color="#939598"/><stop offset="1" stop-color="#58595B"/></radialGradient><radialGradient id="paint12_radial" cx="0" cy="0" r="1" gradientUnits="userSpaceOnUse" gradientTransform="translate(23.493 16.532) scale(57.73)"><stop stop-color="#E6E7E8"/><stop offset=".58" stop-color="#939598"/><stop offset="1" stop-color="#58595B"/></radialGradient><radialGradient id="paint13_radial" cx="0" cy="0" r="1" gradientUnits="userSpaceOnUse" gradientTransform="translate(23.493 16.531) scale(57.73)"><stop stop-color="#E6E7E8"/><stop offset=".58" stop-color="#939598"/><stop offset="1" stop-color="#58595B"/></radialGradient><radialGradient id="paint14_radial" cx="0" cy="0" r="1" gradientUnits="userSpaceOnUse" gradientTransform="translate(23.493 16.531) scale(57.73)"><stop stop-color="#E6E7E8"/><stop offset=".58" stop-color="#939598"/><stop offset="1" stop-color="#58595B"/></radialGradient><radialGradient id="paint15_radial" cx="0" cy="0" r="1" gradientUnits="userSpaceOnUse" gradientTransform="translate(23.493 16.532) scale(57.73)"><stop stop-color="#E6E7E8"/><stop offset=".58" stop-color="#939598"/><stop offset="1" stop-color="#58595B"/></radialGradient><radialGradient id="paint16_radial" cx="0" cy="0" r="1" gradientUnits="userSpaceOnUse" gradientTransform="translate(23.493 16.532) scale(57.73)"><stop stop-color="#E6E7E8"/><stop offset=".58" stop-color="#939598"/><stop offset="1" stop-color="#58595B"/></radialGradient><radialGradient id="paint17_radial" cx="0" cy="0" r="1" gradientUnits="userSpaceOnUse" gradientTransform="translate(23.493 16.531) scale(57.73)"><stop stop-color="#E6E7E8"/><stop offset=".58" stop-color="#939598"/><stop offset="1" stop-color="#58595B"/></radialGradient><radialGradient id="paint18_radial" cx="0" cy="0" r="1" gradientUnits="userSpaceOnUse" gradientTransform="translate(23.493 16.532) scale(57.73)"><stop stop-color="#E6E7E8"/><stop offset=".58" stop-color="#939598"/><stop offset="1" stop-color="#58595B"/></radialGradient><radialGradient id="paint19_radial" cx="0" cy="0" r="1" gradientUnits="userSpaceOnUse" gradientTransform="translate(23.493 16.531) scale(57.73)"><stop stop-color="#E6E7E8"/><stop offset=".58" stop-color="#939598"/><stop offset="1" stop-color="#58595B"/></radialGradient><radialGradient id="paint20_radial" cx="0" cy="0" r="1" gradientUnits="userSpaceOnUse" gradientTransform="translate(23.493 16.532) scale(57.73)"><stop stop-color="#E6E7E8"/><stop offset=".58" stop-color="#939598"/><stop offset="1" stop-color="#58595B"/></radialGradient><radialGradient id="paint21_radial" cx="0" cy="0" r="1" gradientUnits="userSpaceOnUse" gradientTransform="translate(23.493 16.532) scale(57.73)"><stop stop-color="#E6E7E8"/><stop offset=".58" stop-color="#939598"/><stop offset="1" stop-color="#58595B"/></radialGradient><radialGradient id="paint22_radial" cx="0" cy="0" r="1" gradientUnits="userSpaceOnUse" gradientTransform="translate(23.493 16.532) scale(57.73)"><stop stop-color="#E6E7E8"/><stop offset=".58" stop-color="#939598"/><stop offset="1" stop-color="#58595B"/></radialGradient><radialGradient id="paint23_radial" cx="0" cy="0" r="1" gradientUnits="userSpaceOnUse" gradientTransform="translate(23.493 16.531) scale(57.73)"><stop stop-color="#E6E7E8"/><stop offset=".58" stop-color="#939598"/><stop offset="1" stop-color="#58595B"/></radialGradient><radialGradient id="paint24_radial" cx="0" cy="0" r="1" gradientUnits="userSpaceOnUse" gradientTransform="translate(23.493 16.532) scale(57.73)"><stop stop-color="#E6E7E8"/><stop offset=".58" stop-color="#939598"/><stop offset="1" stop-color="#58595B"/></radialGradient><radialGradient id="paint25_radial" cx="0" cy="0" r="1" gradientUnits="userSpaceOnUse" gradientTransform="translate(23.493 16.532) scale(57.7301)"><stop stop-color="#E6E7E8"/><stop offset=".58" stop-color="#939598"/><stop offset="1" stop-color="#58595B"/></radialGradient><radialGradient id="paint26_radial" cx="0" cy="0" r="1" gradientUnits="userSpaceOnUse" gradientTransform="translate(23.493 16.532) scale(57.73)"><stop stop-color="#E6E7E8"/><stop offset=".58" stop-color="#939598"/><stop offset="1" stop-color="#58595B"/></radialGradient><radialGradient id="paint27_radial" cx="0" cy="0" r="1" gradientUnits="userSpaceOnUse" gradientTransform="translate(23.493 16.531) scale(57.73)"><stop stop-color="#E6E7E8"/><stop offset=".58" stop-color="#939598"/><stop offset="1" stop-color="#58595B"/></radialGradient><radialGradient id="paint28_radial" cx="0" cy="0" r="1" gradientUnits="userSpaceOnUse" gradientTransform="translate(23.493 16.531) scale(57.73)"><stop stop-color="#E6E7E8"/><stop offset=".58" stop-color="#939598"/><stop offset="1" stop-color="#58595B"/></radialGradient><radialGradient id="paint29_radial" cx="0" cy="0" r="1" gradientUnits="userSpaceOnUse" gradientTransform="translate(23.493 16.532) scale(57.7301)"><stop stop-color="#E6E7E8"/><stop offset=".58" stop-color="#939598"/><stop offset="1" stop-color="#58595B"/></radialGradient><radialGradient id="paint30_radial" cx="0" cy="0" r="1" gradientUnits="userSpaceOnUse" gradientTransform="translate(23.493 16.532) scale(57.7299)"><stop stop-color="#E6E7E8"/><stop offset=".58" stop-color="#939598"/><stop offset="1" stop-color="#58595B"/></radialGradient><radialGradient id="paint31_radial" cx="0" cy="0" r="1" gradientUnits="userSpaceOnUse" gradientTransform="translate(23.493 16.532) scale(57.7299)"><stop stop-color="#E6E7E8"/><stop offset=".58" stop-color="#939598"/><stop offset="1" stop-color="#58595B"/></radialGradient><radialGradient id="paint32_radial" cx="0" cy="0" r="1" gradientUnits="userSpaceOnUse" gradientTransform="translate(23.493 16.531) scale(57.73)"><stop stop-color="#E6E7E8"/><stop offset=".58" stop-color="#939598"/><stop offset="1" stop-color="#58595B"/></radialGradient><radialGradient id="paint33_radial" cx="0" cy="0" r="1" gradientUnits="userSpaceOnUse" gradientTransform="translate(23.493 16.532) scale(57.73)"><stop stop-color="#E6E7E8"/><stop offset=".58" stop-color="#939598"/><stop offset="1" stop-color="#58595B"/></radialGradient><radialGradient id="paint34_radial" cx="0" cy="0" r="1" gradientUnits="userSpaceOnUse" gradientTransform="translate(23.493 16.532) scale(57.73)"><stop stop-color="#E6E7E8"/><stop offset=".58" stop-color="#939598"/><stop offset="1" stop-color="#58595B"/></radialGradient><radialGradient id="paint35_radial" cx="0" cy="0" r="1" gradientUnits="userSpaceOnUse" gradientTransform="translate(23.493 16.531) scale(57.73)"><stop stop-color="#E6E7E8"/><stop offset=".58" stop-color="#939598"/><stop offset="1" stop-color="#58595B"/></radialGradient><radialGradient id="paint36_radial" cx="0" cy="0" r="1" gradientUnits="userSpaceOnUse" gradientTransform="translate(23.493 16.532) scale(57.73)"><stop stop-color="#E6E7E8"/><stop offset=".58" stop-color="#939598"/><stop offset="1" stop-color="#58595B"/></radialGradient><radialGradient id="paint37_radial" cx="0" cy="0" r="1" gradientUnits="userSpaceOnUse" gradientTransform="translate(23.493 16.532) scale(57.73)"><stop stop-color="#E6E7E8"/><stop offset=".58" stop-color="#939598"/><stop offset="1" stop-color="#58595B"/></radialGradient><radialGradient id="paint38_radial" cx="0" cy="0" r="1" gradientUnits="userSpaceOnUse" gradientTransform="matrix(57.73 0 0 57.7301 23.493 16.531)"><stop stop-color="#E6E7E8"/><stop offset=".58" stop-color="#939598"/><stop offset="1" stop-color="#58595B"/></radialGradient><radialGradient id="paint39_radial" cx="0" cy="0" r="1" gradientUnits="userSpaceOnUse" gradientTransform="translate(23.493 16.531) scale(57.73)"><stop stop-color="#E6E7E8"/><stop offset=".58" stop-color="#939598"/><stop offset="1" stop-color="#58595B"/></radialGradient><radialGradient id="paint40_radial" cx="0" cy="0" r="1" gradientUnits="userSpaceOnUse" gradientTransform="translate(23.493 16.531) scale(57.73)"><stop stop-color="#E6E7E8"/><stop offset=".58" stop-color="#939598"/><stop offset="1" stop-color="#58595B"/></radialGradient><radialGradient id="paint41_radial" cx="0" cy="0" r="1" gradientUnits="userSpaceOnUse" gradientTransform="translate(23.493 16.532) scale(57.73)"><stop stop-color="#E6E7E8"/><stop offset=".58" stop-color="#939598"/><stop offset="1" stop-color="#58595B"/></radialGradient><radialGradient id="paint42_radial" cx="0" cy="0" r="1" gradientUnits="userSpaceOnUse" gradientTransform="translate(23.493 16.531) scale(57.73)"><stop stop-color="#E6E7E8"/><stop offset=".58" stop-color="#939598"/><stop offset="1" stop-color="#58595B"/></radialGradient><radialGradient id="paint43_radial" cx="0" cy="0" r="1" gradientUnits="userSpaceOnUse" gradientTransform="translate(23.493 16.531) scale(57.73)"><stop stop-color="#E6E7E8"/><stop offset=".58" stop-color="#939598"/><stop offset="1" stop-color="#58595B"/></radialGradient><radialGradient id="paint44_radial" cx="0" cy="0" r="1" gradientUnits="userSpaceOnUse" gradientTransform="matrix(57.73 0 0 57.7298 23.493 16.532)"><stop stop-color="#E6E7E8"/><stop offset=".58" stop-color="#939598"/><stop offset="1" stop-color="#58595B"/></radialGradient><radialGradient id="paint45_radial" cx="0" cy="0" r="1" gradientUnits="userSpaceOnUse" gradientTransform="translate(23.493 16.532) scale(57.73)"><stop stop-color="#E6E7E8"/><stop offset=".58" stop-color="#939598"/><stop offset="1" stop-color="#58595B"/></radialGradient><radialGradient id="paint46_radial" cx="0" cy="0" r="1" gradientUnits="userSpaceOnUse" gradientTransform="translate(23.493 16.532) scale(57.73)"><stop stop-color="#E6E7E8"/><stop offset=".58" stop-color="#939598"/><stop offset="1" stop-color="#58595B"/></radialGradient><radialGradient id="paint47_radial" cx="0" cy="0" r="1" gradientUnits="userSpaceOnUse" gradientTransform="translate(23.493 16.531) scale(57.73)"><stop stop-color="#E6E7E8"/><stop offset=".58" stop-color="#939598"/><stop offset="1" stop-color="#58595B"/></radialGradient><radialGradient id="paint48_radial" cx="0" cy="0" r="1" gradientUnits="userSpaceOnUse" gradientTransform="translate(23.493 16.532) scale(57.7301)"><stop stop-color="#E6E7E8"/><stop offset=".58" stop-color="#939598"/><stop offset="1" stop-color="#58595B"/></radialGradient><radialGradient id="paint49_radial" cx="0" cy="0" r="1" gradientUnits="userSpaceOnUse" gradientTransform="translate(23.493 16.532) scale(57.73)"><stop stop-color="#E6E7E8"/><stop offset=".58" stop-color="#939598"/><stop offset="1" stop-color="#58595B"/></radialGradient><radialGradient id="paint50_radial" cx="0" cy="0" r="1" gradientUnits="userSpaceOnUse" gradientTransform="translate(23.493 16.532) scale(57.73)"><stop stop-color="#E6E7E8"/><stop offset=".58" stop-color="#939598"/><stop offset="1" stop-color="#58595B"/></radialGradient><radialGradient id="paint51_radial" cx="0" cy="0" r="1" gradientUnits="userSpaceOnUse" gradientTransform="translate(23.493 16.532) scale(57.7299)"><stop stop-color="#E6E7E8"/><stop offset=".58" stop-color="#939598"/><stop offset="1" stop-color="#58595B"/></radialGradient><radialGradient id="paint52_radial" cx="0" cy="0" r="1" gradientUnits="userSpaceOnUse" gradientTransform="translate(23.493 16.532) scale(57.73)"><stop stop-color="#E6E7E8"/><stop offset=".58" stop-color="#939598"/><stop offset="1" stop-color="#58595B"/></radialGradient><radialGradient id="paint53_radial" cx="0" cy="0" r="1" gradientUnits="userSpaceOnUse" gradientTransform="translate(23.493 16.532) scale(57.73)"><stop stop-color="#E6E7E8"/><stop offset=".58" stop-color="#939598"/><stop offset="1" stop-color="#58595B"/></radialGradient><radialGradient id="paint54_radial" cx="0" cy="0" r="1" gradientUnits="userSpaceOnUse" gradientTransform="translate(23.493 16.532) scale(57.73)"><stop stop-color="#E6E7E8"/><stop offset=".58" stop-color="#939598"/><stop offset="1" stop-color="#58595B"/></radialGradient><radialGradient id="paint55_radial" cx="0" cy="0" r="1" gradientUnits="userSpaceOnUse" gradientTransform="translate(23.493 16.531) scale(57.73)"><stop stop-color="#E6E7E8"/><stop offset=".58" stop-color="#939598"/><stop offset="1" stop-color="#58595B"/></radialGradient><radialGradient id="paint56_radial" cx="0" cy="0" r="1" gradientUnits="userSpaceOnUse" gradientTransform="translate(23.493 16.532) scale(57.73)"><stop stop-color="#E6E7E8"/><stop offset=".58" stop-color="#939598"/><stop offset="1" stop-color="#58595B"/></radialGradient><radialGradient id="paint57_radial" cx="0" cy="0" r="1" gradientUnits="userSpaceOnUse" gradientTransform="translate(23.493 16.531) scale(57.73)"><stop stop-color="#E6E7E8"/><stop offset=".58" stop-color="#939598"/><stop offset="1" stop-color="#58595B"/></radialGradient><radialGradient id="paint58_radial" cx="0" cy="0" r="1" gradientUnits="userSpaceOnUse" gradientTransform="translate(23.493 16.532) scale(57.73)"><stop stop-color="#E6E7E8"/><stop offset=".58" stop-color="#939598"/><stop offset="1" stop-color="#58595B"/></radialGradient><radialGradient id="paint59_radial" cx="0" cy="0" r="1" gradientUnits="userSpaceOnUse" gradientTransform="translate(23.493 16.532) scale(57.73)"><stop stop-color="#E6E7E8"/><stop offset=".58" stop-color="#939598"/><stop offset="1" stop-color="#58595B"/></radialGradient><radialGradient id="paint60_radial" cx="0" cy="0" r="1" gradientUnits="userSpaceOnUse" gradientTransform="translate(23.493 16.532) scale(57.7301)"><stop stop-color="#E6E7E8"/><stop offset=".58" stop-color="#939598"/><stop offset="1" stop-color="#58595B"/></radialGradient><radialGradient id="paint61_radial" cx="0" cy="0" r="1" gradientUnits="userSpaceOnUse" gradientTransform="translate(23.493 16.532) scale(57.73)"><stop stop-color="#E6E7E8"/><stop offset=".58" stop-color="#939598"/><stop offset="1" stop-color="#58595B"/></radialGradient><radialGradient id="paint62_radial" cx="0" cy="0" r="1" gradientUnits="userSpaceOnUse" gradientTransform="translate(23.493 16.532) scale(57.73)"><stop stop-color="#E6E7E8"/><stop offset=".58" stop-color="#939598"/><stop offset="1" stop-color="#58595B"/></radialGradient><radialGradient id="paint63_radial" cx="0" cy="0" r="1" gradientUnits="userSpaceOnUse" gradientTransform="translate(23.493 16.532) scale(57.73)"><stop stop-color="#E6E7E8"/><stop offset=".58" stop-color="#939598"/><stop offset="1" stop-color="#58595B"/></radialGradient><radialGradient id="paint64_radial" cx="0" cy="0" r="1" gradientUnits="userSpaceOnUse" gradientTransform="translate(23.493 16.532) scale(57.73)"><stop stop-color="#E6E7E8"/><stop offset=".58" stop-color="#939598"/><stop offset="1" stop-color="#58595B"/></radialGradient><radialGradient id="paint65_radial" cx="0" cy="0" r="1" gradientUnits="userSpaceOnUse" gradientTransform="translate(23.493 16.532) scale(57.73)"><stop stop-color="#E6E7E8"/><stop offset=".58" stop-color="#939598"/><stop offset="1" stop-color="#58595B"/></radialGradient><radialGradient id="paint66_radial" cx="0" cy="0" r="1" gradientUnits="userSpaceOnUse" gradientTransform="translate(23.493 16.531) scale(57.73)"><stop stop-color="#E6E7E8"/><stop offset=".58" stop-color="#939598"/><stop offset="1" stop-color="#58595B"/></radialGradient><radialGradient id="paint67_radial" cx="0" cy="0" r="1" gradientUnits="userSpaceOnUse" gradientTransform="translate(23.493 16.532) scale(57.73)"><stop stop-color="#E6E7E8"/><stop offset=".58" stop-color="#939598"/><stop offset="1" stop-color="#58595B"/></radialGradient><clipPath id="clip0"><path fill="#fff" d="M0 0h73.57v103.51H0z"/></clipPath></defs></svg>